<svg width="60" height="60" xmlns="http://www.w3.org/2000/svg">
 <title/>
 <desc/>

 <g>
  <title>background</title>
  <rect fill="none" id="canvas_background" height="402" width="582" y="-1" x="-1"/>
 </g>
 <g>
  <title>Layer 1</title>
  <path stroke="null" fill="#ffffff" id="svg_1" d="m22.689477,55.423352c0,-0.684946 -0.025495,-2.497285 -0.040075,-4.904313c-8.254711,1.741547 -9.996377,-3.865395 -9.996377,-3.865395c-1.349985,-3.330896 -3.295705,-4.2176 -3.295705,-4.2176c-2.694489,-1.78934 0.204055,-1.752178 0.204055,-1.752178c2.978693,0.20354 4.545463,2.971623 4.545463,2.971623c2.647116,4.405194 6.944817,3.134437 8.637294,2.396398c0.26964,-1.86368 1.036621,-3.134437 1.883784,-3.854779c-6.589562,-0.727409 -13.517983,-3.201695 -13.517983,-14.249216c0,-3.146835 1.156861,-5.720226 3.055209,-7.736105c-0.304249,-0.729191 -1.324474,-3.660103 0.291486,-7.629918c0,0 2.492266,-0.775202 8.159982,2.955692c2.366561,-0.638935 4.906184,-0.961045 7.431243,-0.97166c2.519594,0.010616 5.0574,0.332726 7.429427,0.97166c5.664083,-3.730894 8.1527,-2.955692 8.1527,-2.955692c1.619609,3.968048 0.601201,6.898961 0.295135,7.629918c1.901997,2.015879 3.049744,4.58927 3.049744,7.736105c0,11.075834 -6.939352,13.512958 -13.550776,14.226203c1.067598,0.890253 2.014939,2.649498 2.014939,5.339707c0,3.854779 -0.038258,6.964436 -0.038258,7.90955c0,0.771669 0.535615,1.667222 2.042282,1.385808c11.781767,-3.819383 20.276974,-14.619135 20.276974,-27.351575c0,-15.92352 -13.288433,-28.831188 -29.677632,-28.831188c-16.387366,0 -29.6758,12.907668 -29.6758,28.831188c0.001816,12.73599 8.504306,23.542808 20.29702,27.355109c1.482973,0.263716 2.02587,-0.626522 2.02587,-1.389342z"/>
 </g>
</svg>