<svg width="512" height="512" xmlns="http://www.w3.org/2000/svg">

 <g>
  <title>background</title>
  <rect fill="none" id="canvas_background" height="402" width="582" y="-1" x="-1"/>
 </g>
 <g>
  <title>Layer 1</title>
  <circle fill="#1e96c8" id="svg_2" r="247" cy="256" cx="256" class="st7"/>
  <path fill="#ffffff" id="svg_4" d="m360.8,159c0.3,-0.2 6.7,-3.1 12.4,0.7c4.4,3 6.5,8.7 5,14.2c-13.9,65.6 -27.9,131.2 -41.8,196.8c-0.1,0.8 -0.9,7.1 -6.6,10.5c-3.8,2.3 -8.6,2.6 -12.8,0.8c-1.1,-0.5 -2.2,-1.2 -3.2,-1.9c-33,-24.8 -66,-49.6 -99,-74.5l115.1,-103.5c0.3,-0.5 1.6,-2.1 1.1,-3.1c-0.4,-0.8 -1.8,-1.1 -3.7,-0.8c-1.8,0.2 -3.5,0.9 -5,1.9c-47.3,29.8 -94.5,59.6 -141.8,89.4l-64.3,-19.5c-2.7,-2 -6.5,-5.2 -6.2,-9c0.3,-3.5 4,-5.9 5.4,-6.8c11.6,-7.2 199.3,-77.9 245.4,-95.2z" class="st1"/>
  <path fill="#a9c9dd" id="svg_5" d="m214.8,305.7l-4.1,63.6c1.5,-0.1 3.7,-0.3 6.2,-1.4c3,-1.3 5,-3.2 6.1,-4.4c9.9,-9.8 19.8,-19.6 29.7,-29.4l-37.9,-28.4z" class="st8"/>
  <path fill="#c8daea" id="svg_6" d="m210.6,369.3c-1.7,0 -3.7,-0.3 -5.3,-1.6c-1.9,-1.6 -2.5,-3.9 -2.6,-4.5c-1.1,-4.5 -9.9,-33.6 -22.2,-73.6l141.8,-89.4c0.6,-0.4 1.4,-0.9 2.5,-1.3c1.8,-0.7 5.2,-1.5 6.1,-0.2c0.4,0.5 0.2,1.3 0.1,1.6c0,0 -0.2,1 -1.1,1.9c-1.2,1.2 -49.4,44.5 -115.1,103.5l-4.2,63.6z" class="st9"/>
 </g>
</svg>